<?xml version="1.0" encoding="UTF-8"?><svg id="Layer_1" xmlns="http://www.w3.org/2000/svg" viewBox="0 0 32 32"><path d="M4.23,14.37c-.51-.29-.91-.69-1.19-1.22-.28-.52-.42-1.13-.42-1.81v-2.39c0-.68.14-1.29.42-1.81.28-.52.68-.93,1.2-1.22.52-.29,1.11-.43,1.79-.43h1.46c.65,0,1.22.13,1.72.39.49.26.88.63,1.15,1.1.27.48.41,1.03.41,1.65h-1.77c0-.47-.14-.85-.42-1.13-.28-.29-.64-.43-1.09-.43h-1.46c-.49,0-.88.18-1.17.54-.29.36-.44.83-.44,1.41v2.24c0,.58.14,1.05.44,1.41.29.36.67.54,1.15.54h1.53c.44,0,.81-.16,1.1-.48.29-.32.44-.72.44-1.2v-.29h-2.52v-1.56h4.29v1.85c0,.63-.14,1.2-.42,1.69-.28.49-.67.88-1.17,1.16-.5.28-1.07.42-1.72.42h-1.53c-.67,0-1.26-.14-1.77-.43Z" fill="#231f20"/><path d="M12.48,14.36c-.23-.23-.35-.52-.35-.88v-7.88h6.94v1.56h-5.15v2.11h4.76v1.56h-4.76v2.31h5.15v1.56h-5.68c-.37,0-.68-.11-.91-.34Z" fill="#231f20"/><path d="M20.3,5.6h1.6l2.98,5.41,2.91-5.41h1.6v9.1h-1.75v-5.76l-1.91,3.46c-.13.23-.26.4-.4.5-.13.1-.29.15-.46.15h-.49l-2.31-4.11v5.76h-1.75V5.6Z" fill="#231f20"/><path d="M3.95,17.41h1.6l4.37,6.19v-6.19h1.75v9.1h-1.6l-4.37-6.19v6.19h-1.75v-9.1Z" fill="#231f20"/><path d="M13.28,17.41h6.81v1.56h-5.02v2.44h4.54v1.56h-4.54v3.54h-1.79v-9.1Z" fill="#231f20"/><path d="M23.37,18.97h-2.89v-1.56h7.56v1.56h-2.89v7.54h-1.79v-7.54Z" fill="#231f20"/></svg>